<?xml version="1.0" encoding="UTF-8"?>
<!DOCTYPE svg PUBLIC "-//W3C//DTD SVG 1.1//EN" "http://www.w3.org/Graphics/SVG/1.1/DTD/svg11.dtd">
<svg xmlns="http://www.w3.org/2000/svg" version="1.1" width="18px" height="18px" style="shape-rendering:geometricPrecision; text-rendering:geometricPrecision; image-rendering:optimizeQuality; fill-rule:evenodd; clip-rule:evenodd" xmlns:xlink="http://www.w3.org/1999/xlink">
<g><path style="opacity:0.816" fill="#656665" d="M -0.5,-0.5 C 5.5,-0.5 11.5,-0.5 17.5,-0.5C 17.5,5.5 17.5,11.5 17.5,17.5C 11.5,17.5 5.5,17.5 -0.5,17.5C -0.5,11.5 -0.5,5.5 -0.5,-0.5 Z M 12.5,2.5 C 13.675,2.28099 14.675,2.61432 15.5,3.5C 13.9483,4.79789 12.9483,4.46455 12.5,2.5 Z M 6.5,5.5 C 11.1585,5.01463 12.4919,6.84796 10.5,11C 6.12581,11.4241 4.79247,9.59074 6.5,5.5 Z M 2.5,10.5 C 3.5,12.1667 4.83333,13.5 6.5,14.5C 4.80081,14.6602 3.13414,14.4935 1.5,14C 2.33663,12.9887 2.66997,11.8221 2.5,10.5 Z M 10.5,14.5 C 11.6883,13.6364 12.8549,12.6364 14,11.5C 14.3742,12.4162 14.8742,13.2496 15.5,14C 13.8659,14.4935 12.1992,14.6602 10.5,14.5 Z"/></g>
</svg>
