<?xml version="1.0" encoding="UTF-8"?>
<!DOCTYPE svg PUBLIC "-//W3C//DTD SVG 1.1//EN" "http://www.w3.org/Graphics/SVG/1.1/DTD/svg11.dtd">
<svg xmlns="http://www.w3.org/2000/svg" version="1.1" width="276px" height="240px" style="shape-rendering:geometricPrecision; text-rendering:geometricPrecision; image-rendering:optimizeQuality; fill-rule:evenodd; clip-rule:evenodd" xmlns:xlink="http://www.w3.org/1999/xlink">
<g><path style="opacity:0.958" fill="#c61116" d="M 181.5,0.5 C 184.957,5.61676 188.124,10.9501 191,16.5C 194.647,18.4706 196.814,21.4706 197.5,25.5C 198.978,25.238 200.311,25.5713 201.5,26.5C 202.833,28.5 204.5,30.1667 206.5,31.5C 205.812,32.8549 204.812,33.8549 203.5,34.5C 196.891,33.5774 190.224,33.2441 183.5,33.5C 187.101,31.0228 190.767,28.5228 194.5,26C 190.333,19.1667 186.167,12.3333 182,5.5C 180.736,3.39297 178.903,2.39297 176.5,2.5C 177.78,1.06873 179.447,0.402065 181.5,0.5 Z"/></g>
<g><path style="opacity:1" fill="#e61117" d="M 176.5,2.5 C 178.903,2.39297 180.736,3.39297 182,5.5C 186.167,12.3333 190.333,19.1667 194.5,26C 190.767,28.5228 187.101,31.0228 183.5,33.5C 180.322,36.2583 176.655,38.2583 172.5,39.5C 170.774,39.8146 169.107,39.9813 167.5,40C 168.022,39.4387 168.355,38.772 168.5,38C 167.596,31.5056 165.263,25.6723 161.5,20.5C 165.059,13.2761 170.059,7.27615 176.5,2.5 Z"/></g>
<g><path style="opacity:0.999" fill="#e41218" d="M 91.5,0.5 C 102.24,2.72919 110.74,8.39586 117,17.5C 118.844,20.5279 120.678,23.5279 122.5,26.5C 120.502,31.8296 118.502,37.1629 116.5,42.5C 115.167,42.5 113.833,42.5 112.5,42.5C 109.084,42.4725 106.084,41.4725 103.5,39.5C 111.08,33.0873 113.414,25.0873 110.5,15.5C 105.307,10.5932 99.8068,10.2599 94,14.5C 92.3333,17.1667 90.6667,19.8333 89,22.5C 88.2879,25.4376 88.7879,28.1043 90.5,30.5C 85.8899,27.5212 81.2232,24.5212 76.5,21.5C 82.2553,14.9696 87.2553,7.96963 91.5,0.5 Z"/></g>
<g><path style="opacity:0.984" fill="#8d060a" d="M 185.5,-0.5 C 187.167,-0.5 188.833,-0.5 190.5,-0.5C 197.906,6.24297 204.239,13.9096 209.5,22.5C 209.44,23.0431 209.107,23.3764 208.5,23.5C 206.556,22.8108 204.556,22.3108 202.5,22C 201.773,20.6012 201.273,19.1012 201,17.5C 195.583,11.5929 190.416,5.59294 185.5,-0.5 Z"/></g>
<g><path style="opacity:0.997" fill="#96080c" d="M 83.5,0.5 C 84.3764,0.369118 85.0431,0.702451 85.5,1.5C 81.7496,7.9688 77.9163,14.3021 74,20.5C 70.7784,21.3115 67.6117,22.3115 64.5,23.5C 67.743,17.0736 71.243,10.7402 75,4.5C 77.3974,2.21772 80.2307,0.884385 83.5,0.5 Z"/></g>
<g><path style="opacity:1" fill="#f11117" d="M 103.5,39.5 C 98.3346,37.6625 94.0013,34.6625 90.5,30.5C 88.7879,28.1043 88.2879,25.4376 89,22.5C 90.6667,19.8333 92.3333,17.1667 94,14.5C 99.8068,10.2599 105.307,10.5932 110.5,15.5C 113.414,25.0873 111.08,33.0873 103.5,39.5 Z"/></g>
<g><path style="opacity:0.968" fill="#cb1116" d="M 161.5,20.5 C 165.263,25.6723 167.596,31.5056 168.5,38C 168.355,38.772 168.022,39.4387 167.5,40C 169.107,39.9813 170.774,39.8146 172.5,39.5C 170.147,41.3433 167.48,42.6766 164.5,43.5C 162.167,43.5 159.833,43.5 157.5,43.5C 158.361,38.2183 156.361,34.5516 151.5,32.5C 155.24,28.7672 158.573,24.7672 161.5,20.5 Z"/></g>
<g><path style="opacity:0.989" fill="#d11319" d="M 122.5,26.5 C 124.833,30.1667 127.833,33.1667 131.5,35.5C 129.874,38.2457 129.207,41.2457 129.5,44.5C 123.797,44.6252 118.13,44.2919 112.5,43.5C 112.5,43.1667 112.5,42.8333 112.5,42.5C 113.833,42.5 115.167,42.5 116.5,42.5C 118.502,37.1629 120.502,31.8296 122.5,26.5 Z"/></g>
<g><path style="opacity:1" fill="#ae0c10" d="M 83.5,0.5 C 83.5,0.166667 83.5,-0.166667 83.5,-0.5C 85.8333,-0.5 88.1667,-0.5 90.5,-0.5C 90.5,0.166667 90.8333,0.5 91.5,0.5C 87.2553,7.96963 82.2553,14.9696 76.5,21.5C 81.2232,24.5212 85.8899,27.5212 90.5,30.5C 94.0013,34.6625 98.3346,37.6625 103.5,39.5C 106.084,41.4725 109.084,42.4725 112.5,42.5C 112.5,42.8333 112.5,43.1667 112.5,43.5C 111.761,43.369 111.094,43.5357 110.5,44C 111.167,45.3333 111.833,46.6667 112.5,48C 115.167,48.3333 117.833,48.6667 120.5,49C 117.183,49.4983 113.85,49.665 110.5,49.5C 108.052,48.5269 105.385,48.1936 102.5,48.5C 101.431,41.5962 97.4309,37.4296 90.5,36C 82.0286,34.2236 74.3619,35.7236 67.5,40.5C 60.8637,35.714 59.8637,30.0474 64.5,23.5C 67.6117,22.3115 70.7784,21.3115 74,20.5C 77.9163,14.3021 81.7496,7.9688 85.5,1.5C 85.0431,0.702451 84.3764,0.369118 83.5,0.5 Z"/></g>
<g><path style="opacity:1" fill="#820206" d="M 69.5,22.5 C 72.3198,22.2475 74.9865,22.7475 77.5,24C 74.4319,28.7873 70.2652,32.2873 65,34.5C 63.482,32.3863 63.1487,30.053 64,27.5C 65.7038,25.6266 67.5372,23.9599 69.5,22.5 Z"/></g>
<g><path style="opacity:1" fill="#d40c11" d="M 148.5,34.5 C 148.5,34.8333 148.5,35.1667 148.5,35.5C 147.778,35.9175 147.278,36.5842 147,37.5C 146.586,37.0426 146.086,36.7093 145.5,36.5C 142.243,37.5514 138.91,38.2181 135.5,38.5C 134.624,41.7989 134.457,45.1322 135,48.5C 140.602,51.7656 145.269,50.7656 149,45.5C 149.497,43.1902 149.663,40.8568 149.5,38.5C 150.483,42.2984 150.817,46.2984 150.5,50.5C 145.25,51.6148 139.917,51.7815 134.5,51C 133.531,46.2633 133.197,41.43 133.5,36.5C 137.869,32.0525 142.869,31.3859 148.5,34.5 Z"/></g>
<g><path style="opacity:1" fill="#aa0b0e" d="M 181.5,-0.5 C 182.833,-0.5 184.167,-0.5 185.5,-0.5C 190.416,5.59294 195.583,11.5929 201,17.5C 201.273,19.1012 201.773,20.6012 202.5,22C 204.556,22.3108 206.556,22.8108 208.5,23.5C 209.107,23.3764 209.44,23.0431 209.5,22.5C 211.377,23.6591 211.877,25.3258 211,27.5C 208.588,31.9159 205.422,35.7492 201.5,39C 205.346,40.0859 208.68,41.9193 211.5,44.5C 216.447,50.4559 221.447,56.4559 226.5,62.5C 223.922,63.665 220.922,63.665 217.5,62.5C 205.997,59.9511 194.33,58.9511 182.5,59.5C 182.5,59.1667 182.5,58.8333 182.5,58.5C 192.188,58.3798 201.854,58.7131 211.5,59.5C 214.183,61.2809 217.183,61.7809 220.5,61C 219.874,60.2496 219.374,59.4162 219,58.5C 212.875,54.0438 207.042,49.2105 201.5,44C 198.947,43.2389 196.447,42.4056 194,41.5C 184.584,42.5605 175.417,44.7272 166.5,48C 164.975,51.6905 163.975,55.5238 163.5,59.5C 163.5,60.8333 163.5,62.1667 163.5,63.5C 162.662,63.1583 162.328,62.4916 162.5,61.5C 162.209,60.3509 161.376,59.6842 160,59.5C 153.279,61.0825 146.446,61.9159 139.5,62C 134.492,65.8354 128.825,68.0021 122.5,68.5C 122.5,67.5 122.5,66.5 122.5,65.5C 128.493,64.5576 134.159,62.7243 139.5,60C 146.823,59.2786 154.156,58.7786 161.5,58.5C 160.345,53.1448 162.012,48.9781 166.5,46C 174.621,41.027 183.454,38.1936 193,37.5C 197.562,39.8095 201.062,38.8095 203.5,34.5C 204.812,33.8549 205.812,32.8549 206.5,31.5C 204.5,30.1667 202.833,28.5 201.5,26.5C 200.311,25.5713 198.978,25.238 197.5,25.5C 196.814,21.4706 194.647,18.4706 191,16.5C 188.124,10.9501 184.957,5.61676 181.5,0.5C 181.5,0.166667 181.5,-0.166667 181.5,-0.5 Z"/></g>
<g><path style="opacity:1" fill="#c00e13" d="M 110.5,49.5 C 100.051,49.5685 89.7175,48.5685 79.5,46.5C 75.4511,44.6992 71.4511,42.6992 67.5,40.5C 74.3619,35.7236 82.0286,34.2236 90.5,36C 97.4309,37.4296 101.431,41.5962 102.5,48.5C 105.385,48.1936 108.052,48.5269 110.5,49.5 Z"/></g>
<g><path style="opacity:1" fill="#a20a0e" d="M 151.5,32.5 C 156.361,34.5516 158.361,38.2183 157.5,43.5C 159.833,43.5 162.167,43.5 164.5,43.5C 160.404,45.0231 156.071,46.0231 151.5,46.5C 151.768,48.099 151.434,49.4324 150.5,50.5C 150.817,46.2984 150.483,42.2984 149.5,38.5C 149.443,37.391 149.11,36.391 148.5,35.5C 148.5,35.1667 148.5,34.8333 148.5,34.5C 149.5,33.8333 150.5,33.1667 151.5,32.5 Z"/></g>
<g><path style="opacity:0.235" fill="#ababab" d="M 223.5,51.5 C 235.167,49.1667 239.833,53.8333 237.5,65.5C 236.163,61.9054 234.83,58.2387 233.5,54.5C 230.691,53.1997 228.024,53.1997 225.5,54.5C 224.094,54.0269 223.427,53.0269 223.5,51.5 Z"/></g>
<g><path style="opacity:1" fill="#c20c10" d="M 211.5,59.5 C 212.552,59.6495 213.552,59.4828 214.5,59C 209.232,57.0267 204.565,54.0267 200.5,50C 196.776,48.0125 192.776,47.1791 188.5,47.5C 183.788,47.5861 179.121,48.0861 174.5,49C 170.501,50.6813 168.501,53.6813 168.5,58C 173.155,58.4992 177.821,58.6658 182.5,58.5C 182.5,58.8333 182.5,59.1667 182.5,59.5C 176.167,59.5 169.833,59.5 163.5,59.5C 163.975,55.5238 164.975,51.6905 166.5,48C 175.417,44.7272 184.584,42.5605 194,41.5C 196.447,42.4056 198.947,43.2389 201.5,44C 207.042,49.2105 212.875,54.0438 219,58.5C 219.374,59.4162 219.874,60.2496 220.5,61C 217.183,61.7809 214.183,61.2809 211.5,59.5 Z"/></g>
<g><path style="opacity:1" fill="#df0f14" d="M 211.5,59.5 C 201.854,58.7131 192.188,58.3798 182.5,58.5C 177.821,58.6658 173.155,58.4992 168.5,58C 168.501,53.6813 170.501,50.6813 174.5,49C 179.121,48.0861 183.788,47.5861 188.5,47.5C 192.776,47.1791 196.776,48.0125 200.5,50C 204.565,54.0267 209.232,57.0267 214.5,59C 213.552,59.4828 212.552,59.6495 211.5,59.5 Z"/></g>
<g><path style="opacity:1" fill="#d0d2d2" d="M 237.5,65.5 C 237.5,66.1667 237.5,66.8333 237.5,67.5C 234.189,62.5553 230.189,58.222 225.5,54.5C 228.024,53.1997 230.691,53.1997 233.5,54.5C 234.83,58.2387 236.163,61.9054 237.5,65.5 Z"/></g>
<g><path style="opacity:0.912" fill="#b2b4b4" d="M 55.5,51.5 C 55.1667,52.1667 54.8333,52.8333 54.5,53.5C 51.4728,55.8605 48.8062,58.5271 46.5,61.5C 45.1304,54.5259 48.1304,51.1926 55.5,51.5 Z"/></g>
<g><path style="opacity:1" fill="#8f080b" d="M 183.5,33.5 C 190.224,33.2441 196.891,33.5774 203.5,34.5C 201.062,38.8095 197.562,39.8095 193,37.5C 183.454,38.1936 174.621,41.027 166.5,46C 162.012,48.9781 160.345,53.1448 161.5,58.5C 154.156,58.7786 146.823,59.2786 139.5,60C 134.159,62.7243 128.493,64.5576 122.5,65.5C 122.5,66.5 122.5,67.5 122.5,68.5C 121.521,80.7533 121.187,93.0867 121.5,105.5C 150.738,108.468 150.738,110.134 121.5,110.5C 121.5,117.833 121.5,125.167 121.5,132.5C 121.5,133.167 121.167,133.5 120.5,133.5C 120.5,126.833 120.5,120.167 120.5,113.5C 120.5,112.167 120.5,110.833 120.5,109.5C 120.5,108.833 120.5,108.167 120.5,107.5C 120.5,105.167 120.5,102.833 120.5,100.5C 120.5,89.5 120.5,78.5 120.5,67.5C 120.5,64.8333 120.5,62.1667 120.5,59.5C 114.134,59.296 108.134,57.9626 102.5,55.5C 107.422,55.8896 107.756,54.7229 103.5,52C 100.236,51.0611 96.9026,50.5611 93.5,50.5C 82.1669,51.8333 70.8335,53.1666 59.5,54.5C 57.7927,54.2716 56.126,53.9383 54.5,53.5C 54.8333,52.8333 55.1667,52.1667 55.5,51.5C 63.1626,48.333 71.1626,46.6664 79.5,46.5C 89.7175,48.5685 100.051,49.5685 110.5,49.5C 113.85,49.665 117.183,49.4983 120.5,49C 117.833,48.6667 115.167,48.3333 112.5,48C 111.833,46.6667 111.167,45.3333 110.5,44C 111.094,43.5357 111.761,43.369 112.5,43.5C 118.13,44.2919 123.797,44.6252 129.5,44.5C 129.207,41.2457 129.874,38.2457 131.5,35.5C 132.167,35.8333 132.833,36.1667 133.5,36.5C 133.197,41.43 133.531,46.2633 134.5,51C 139.917,51.7815 145.25,51.6148 150.5,50.5C 151.434,49.4324 151.768,48.099 151.5,46.5C 156.071,46.0231 160.404,45.0231 164.5,43.5C 167.48,42.6766 170.147,41.3433 172.5,39.5C 176.655,38.2583 180.322,36.2583 183.5,33.5 Z"/></g>
<g><path style="opacity:1" fill="#ee070b" d="M 148.5,35.5 C 149.11,36.391 149.443,37.391 149.5,38.5C 149.663,40.8568 149.497,43.1902 149,45.5C 145.269,50.7656 140.602,51.7656 135,48.5C 134.457,45.1322 134.624,41.7989 135.5,38.5C 138.91,38.2181 142.243,37.5514 145.5,36.5C 146.086,36.7093 146.586,37.0426 147,37.5C 147.278,36.5842 147.778,35.9175 148.5,35.5 Z"/></g>
<g><path style="opacity:1" fill="#d21115" d="M 76.5,62.5 C 73.6082,65.271 70.9416,68.271 68.5,71.5C 68.6602,69.8008 68.4935,68.1341 68,66.5C 57.4006,73.7308 50.2339,83.3974 46.5,95.5C 44.0905,94.2993 42.0905,92.6326 40.5,90.5C 43.1084,78.8168 49.1084,69.3168 58.5,62C 65.423,59.0207 72.423,56.354 79.5,54C 87.5543,52.1599 95.5543,52.1599 103.5,54C 94.1365,53.2779 85.4699,55.2779 77.5,60C 76.7476,60.6708 76.4142,61.5041 76.5,62.5 Z"/></g>
<g><path style="opacity:1" fill="#b30d11" d="M 102.5,55.5 C 93.0119,54.9182 84.3452,57.2515 76.5,62.5C 76.4142,61.5041 76.7476,60.6708 77.5,60C 85.4699,55.2779 94.1365,53.2779 103.5,54C 95.5543,52.1599 87.5543,52.1599 79.5,54C 72.423,56.354 65.423,59.0207 58.5,62C 49.1084,69.3168 43.1084,78.8168 40.5,90.5C 37.746,88.9472 36.9126,86.6139 38,83.5C 39.3735,75.5373 42.2068,68.2039 46.5,61.5C 48.8062,58.5271 51.4728,55.8605 54.5,53.5C 56.126,53.9383 57.7927,54.2716 59.5,54.5C 70.8335,53.1666 82.1669,51.8333 93.5,50.5C 96.9026,50.5611 100.236,51.0611 103.5,52C 107.756,54.7229 107.422,55.8896 102.5,55.5 Z"/></g>
<g><path style="opacity:1" fill="#b7b8b8" d="M 102.5,55.5 C 108.134,57.9626 114.134,59.296 120.5,59.5C 120.5,62.1667 120.5,64.8333 120.5,67.5C 119.662,67.1583 119.328,66.4916 119.5,65.5C 119.5,64.5 119.5,63.5 119.5,62.5C 104.597,60.9953 90.264,62.8287 76.5,68C 74.0888,69.9555 71.5888,71.7888 69,73.5C 68.6012,73.2716 68.4346,72.9382 68.5,72.5C 68.5,72.1667 68.5,71.8333 68.5,71.5C 70.9416,68.271 73.6082,65.271 76.5,62.5C 84.3452,57.2515 93.0119,54.9182 102.5,55.5 Z"/></g>
<g><path style="opacity:1" fill="#a4a09f" d="M 163.5,59.5 C 169.833,59.5 176.167,59.5 182.5,59.5C 194.33,58.9511 205.997,59.9511 217.5,62.5C 218.5,63.1667 219.5,63.8333 220.5,64.5C 219.262,64.81 219.262,65.31 220.5,66C 211.729,66.1817 203.062,65.1817 194.5,63C 193.833,62.3333 193.167,61.6667 192.5,61C 187.511,60.5007 182.511,60.3341 177.5,60.5C 173.167,60.5 168.833,60.5 164.5,60.5C 164.5,62.1667 164.5,63.8333 164.5,65.5C 164.5,76.8333 164.5,88.1667 164.5,99.5C 164.5,102.167 164.5,104.833 164.5,107.5C 164.167,107.5 163.833,107.5 163.5,107.5C 163.5,106.833 163.5,106.167 163.5,105.5C 163.5,94.1667 163.5,82.8333 163.5,71.5C 163.5,68.8333 163.5,66.1667 163.5,63.5C 163.5,62.1667 163.5,60.8333 163.5,59.5 Z"/></g>
<g><path style="opacity:1" fill="#d3d2d2" d="M 119.5,65.5 C 108.881,65.3953 98.2141,65.7286 87.5,66.5C 82.6913,68.4049 78.0247,70.5716 73.5,73C 68.7078,77.7746 65.3745,83.2746 63.5,89.5C 62.8333,90.5 62.1667,91.5 61.5,92.5C 62.2669,85.1953 64.6002,78.5286 68.5,72.5C 68.4346,72.9382 68.6012,73.2716 69,73.5C 71.5888,71.7888 74.0888,69.9555 76.5,68C 90.264,62.8287 104.597,60.9953 119.5,62.5C 119.5,63.5 119.5,64.5 119.5,65.5 Z"/></g>
<g><path style="opacity:1" fill="#b6b7b7" d="M 177.5,60.5 C 182.511,60.3341 187.511,60.5007 192.5,61C 193.167,61.6667 193.833,62.3333 194.5,63C 203.062,65.1817 211.729,66.1817 220.5,66C 219.262,65.31 219.262,64.81 220.5,64.5C 222.153,64.6596 223.486,65.3263 224.5,66.5C 223.262,66.81 223.262,67.31 224.5,68C 210.182,68.4998 196.182,66.8332 182.5,63C 177.833,62.6667 173.167,62.3333 168.5,62C 171.695,61.8195 174.695,61.3195 177.5,60.5 Z"/></g>
<g><path style="opacity:1" fill="#cecece" d="M 177.5,60.5 C 174.695,61.3195 171.695,61.8195 168.5,62C 173.167,62.3333 177.833,62.6667 182.5,63C 196.182,66.8332 210.182,68.4998 224.5,68C 223.262,67.31 223.262,66.81 224.5,66.5C 225.71,66.9321 226.71,67.5987 227.5,68.5C 213.485,71.3587 199.485,70.8587 185.5,67C 178.533,66.0027 171.533,65.5027 164.5,65.5C 164.5,63.8333 164.5,62.1667 164.5,60.5C 168.833,60.5 173.167,60.5 177.5,60.5 Z"/></g>
<g><path style="opacity:1" fill="#e6e7e7" d="M 164.5,65.5 C 171.533,65.5027 178.533,66.0027 185.5,67C 199.485,70.8587 213.485,71.3587 227.5,68.5C 231.212,71.2109 234.212,74.5442 236.5,78.5C 235.755,87.1335 235.255,95.8001 235,104.5C 228.39,105.12 221.89,106.12 215.5,107.5C 198.79,107.96 182.457,106.127 166.5,102C 165.934,101.005 165.267,100.172 164.5,99.5C 164.5,88.1667 164.5,76.8333 164.5,65.5 Z"/></g>
<g><path style="opacity:1" fill="#d9080b" d="M 162.5,68.5 C 152.121,72.4321 149.621,79.4321 155,89.5C 156.746,93.3267 158.746,96.9934 161,100.5C 161.494,102.134 161.66,103.801 161.5,105.5C 159.712,105.785 158.045,105.452 156.5,104.5C 150.906,95.4246 145.572,86.2579 140.5,77C 141.091,73.4999 143.091,71.1666 146.5,70C 151.894,69.1942 157.06,67.6942 162,65.5C 162.483,66.448 162.649,67.448 162.5,68.5 Z"/></g>
<g><path style="opacity:1" fill="#f7f7f7" d="M 62.5,105.5 C 61.5166,101.702 61.1832,97.7016 61.5,93.5C 61.5,93.1667 61.5,92.8333 61.5,92.5C 62.1667,91.5 62.8333,90.5 63.5,89.5C 63.3433,90.8734 63.51,92.2068 64,93.5C 66.897,87.3734 70.0637,81.3734 73.5,75.5C 77.7928,73.6902 82.1261,71.8569 86.5,70C 90.1667,69.3333 93.8333,69.3333 97.5,70C 104.408,71.6598 111.408,72.8265 118.5,73.5C 119.941,82.529 119.774,91.529 118,100.5C 108.188,98.6441 98.3549,99.4774 88.5,103C 79.659,103.604 70.9923,104.437 62.5,105.5 Z"/></g>
<g><path style="opacity:0.827" fill="#8f0a0b" d="M 211.5,44.5 C 215.5,46.8333 219.5,49.1667 223.5,51.5C 223.427,53.0269 224.094,54.0269 225.5,54.5C 230.189,58.222 234.189,62.5553 237.5,67.5C 242.519,75.0523 245.185,83.219 245.5,92C 244.5,92.6667 243.5,92.6667 242.5,92C 240.93,88.3637 239.263,84.8637 237.5,81.5C 237.737,80.209 237.404,79.209 236.5,78.5C 234.212,74.5442 231.212,71.2109 227.5,68.5C 226.71,67.5987 225.71,66.9321 224.5,66.5C 223.486,65.3263 222.153,64.6596 220.5,64.5C 219.5,63.8333 218.5,63.1667 217.5,62.5C 220.922,63.665 223.922,63.665 226.5,62.5C 221.447,56.4559 216.447,50.4559 211.5,44.5 Z"/></g>
<g><path style="opacity:1" fill="#e50305" d="M 162.5,68.5 C 162.263,69.791 162.596,70.791 163.5,71.5C 163.5,82.8333 163.5,94.1667 163.5,105.5C 162.833,105.5 162.167,105.5 161.5,105.5C 161.66,103.801 161.494,102.134 161,100.5C 158.746,96.9934 156.746,93.3267 155,89.5C 149.621,79.4321 152.121,72.4321 162.5,68.5 Z"/></g>
<g><path style="opacity:1" fill="#fbfbfb" d="M 166.5,69.5 C 188.309,72.2597 210.309,75.4264 232.5,79C 233.191,80.0674 233.691,81.2341 234,82.5C 234.667,89.5 234.667,96.5 234,103.5C 223.896,104.821 213.73,105.654 203.5,106C 190.891,102.863 178.558,98.8627 166.5,94C 165.181,85.8335 165.181,77.6668 166.5,69.5 Z"/></g>
<g><path style="opacity:1" fill="#e71015" d="M 68.5,71.5 C 68.5,71.8333 68.5,72.1667 68.5,72.5C 64.6002,78.5286 62.2669,85.1953 61.5,92.5C 61.5,92.8333 61.5,93.1667 61.5,93.5C 60.8337,97.3525 60.167,101.353 59.5,105.5C 55.148,102.143 50.8147,98.8093 46.5,95.5C 50.2339,83.3974 57.4006,73.7308 68,66.5C 68.4935,68.1341 68.6602,69.8008 68.5,71.5 Z"/></g>
<g><path style="opacity:1" fill="#b6090c" d="M 162.5,61.5 C 161.735,61.0766 160.902,60.7432 160,60.5C 153.629,62.5531 147.129,64.0531 140.5,65C 136.008,68.9974 130.841,71.8308 125,73.5C 124.228,73.3552 123.561,73.0219 123,72.5C 122.333,78.1667 122.333,83.8333 123,89.5C 126.231,88.7545 129.397,89.2545 132.5,91C 137.688,94.688 142.022,99.188 145.5,104.5C 149.876,105.09 153.876,106.59 157.5,109C 151.851,110.426 146.185,111.759 140.5,113C 141.167,113.333 141.833,113.667 142.5,114C 141.888,115.303 141.554,116.47 141.5,117.5C 135.668,115.852 129.668,114.852 123.5,114.5C 122.505,120.128 122.171,125.794 122.5,131.5C 122.5,132.167 122.167,132.5 121.5,132.5C 121.5,125.167 121.5,117.833 121.5,110.5C 150.738,110.134 150.738,108.468 121.5,105.5C 121.187,93.0867 121.521,80.7533 122.5,68.5C 128.825,68.0021 134.492,65.8354 139.5,62C 146.446,61.9159 153.279,61.0825 160,59.5C 161.376,59.6842 162.209,60.3509 162.5,61.5 Z"/></g>
<g><path style="opacity:1" fill="#e5e6e6" d="M 119.5,65.5 C 119.328,66.4916 119.662,67.1583 120.5,67.5C 120.5,78.5 120.5,89.5 120.5,100.5C 119.596,101.209 119.263,102.209 119.5,103.5C 100.578,104.644 81.5777,105.31 62.5,105.5C 70.9923,104.437 79.659,103.604 88.5,103C 98.3549,99.4774 108.188,98.6441 118,100.5C 119.774,91.529 119.941,82.529 118.5,73.5C 111.408,72.8265 104.408,71.6598 97.5,70C 93.8333,69.3333 90.1667,69.3333 86.5,70C 82.1261,71.8569 77.7928,73.6902 73.5,75.5C 70.0637,81.3734 66.897,87.3734 64,93.5C 63.51,92.2068 63.3433,90.8734 63.5,89.5C 65.3745,83.2746 68.7078,77.7746 73.5,73C 78.0247,70.5716 82.6913,68.4049 87.5,66.5C 98.2141,65.7286 108.881,65.3953 119.5,65.5 Z"/></g>
<g><path style="opacity:1" fill="#d3cfcf" d="M 61.5,93.5 C 61.1832,97.7016 61.5166,101.702 62.5,105.5C 81.5777,105.31 100.578,104.644 119.5,103.5C 119.5,104.5 119.5,105.5 119.5,106.5C 96.8209,106.296 74.1543,106.629 51.5,107.5C 47.2132,106.768 45.2132,104.101 45.5,99.5C 45.6233,98.0755 45.9566,96.7421 46.5,95.5C 50.8147,98.8093 55.148,102.143 59.5,105.5C 60.167,101.353 60.8337,97.3525 61.5,93.5 Z"/></g>
<g><path style="opacity:1" fill="#888888" d="M 120.5,107.5 C 120.5,108.167 120.5,108.833 120.5,109.5C 76.5386,108.171 76.5386,107.505 120.5,107.5 Z"/></g>
<g><path style="opacity:1" fill="#d8d8d8" d="M 236.5,78.5 C 237.404,79.209 237.737,80.209 237.5,81.5C 237.666,89.1739 237.5,96.8406 237,104.5C 236.3,106.032 235.134,107.032 233.5,107.5C 232.5,125.821 232.167,144.155 232.5,162.5C 230.839,147.694 229.672,132.694 229,117.5C 229.538,111.033 226.704,108.533 220.5,110C 215.396,110.954 210.396,112.287 205.5,114C 196.103,119.361 186.769,124.694 177.5,130C 174.373,130.392 171.373,131.225 168.5,132.5C 167.015,131.567 165.682,131.9 164.5,133.5C 164.5,129.833 164.5,126.167 164.5,122.5C 165.936,122.678 167.436,123.011 169,123.5C 176.673,120.747 184.173,117.58 191.5,114C 199.58,111.626 207.58,109.46 215.5,107.5C 221.89,106.12 228.39,105.12 235,104.5C 235.255,95.8001 235.755,87.1335 236.5,78.5 Z"/></g>
<g><path style="opacity:1" fill="#989494" d="M 163.5,107.5 C 163.833,107.5 164.167,107.5 164.5,107.5C 172.174,107.334 179.841,107.5 187.5,108C 180.395,110.573 173.062,111.74 165.5,111.5C 164.756,115.119 164.423,118.785 164.5,122.5C 164.5,126.167 164.5,129.833 164.5,133.5C 164.5,161.833 164.5,190.167 164.5,218.5C 164.5,221.833 164.5,225.167 164.5,228.5C 164.167,228.5 163.833,228.5 163.5,228.5C 163.5,192.833 163.5,157.167 163.5,121.5C 163.5,116.833 163.5,112.167 163.5,107.5 Z"/></g>
<g><path style="opacity:1" fill="#b7b7b7" d="M 120.5,100.5 C 120.5,102.833 120.5,105.167 120.5,107.5C 76.5386,107.505 76.5386,108.171 120.5,109.5C 120.5,110.833 120.5,112.167 120.5,113.5C 97.5261,111.676 74.5261,110.009 51.5,108.5C 51.5,108.167 51.5,107.833 51.5,107.5C 74.1543,106.629 96.8209,106.296 119.5,106.5C 119.5,105.5 119.5,104.5 119.5,103.5C 119.263,102.209 119.596,101.209 120.5,100.5 Z"/></g>
<g><path style="opacity:1" fill="#c90a0e" d="M 162.5,61.5 C 162.328,62.4916 162.662,63.1583 163.5,63.5C 163.5,66.1667 163.5,68.8333 163.5,71.5C 162.596,70.791 162.263,69.791 162.5,68.5C 162.649,67.448 162.483,66.448 162,65.5C 157.06,67.6942 151.894,69.1942 146.5,70C 143.091,71.1666 141.091,73.4999 140.5,77C 145.572,86.2579 150.906,95.4246 156.5,104.5C 158.045,105.452 159.712,105.785 161.5,105.5C 162.167,105.5 162.833,105.5 163.5,105.5C 163.5,106.167 163.5,106.833 163.5,107.5C 163.5,112.167 163.5,116.833 163.5,121.5C 162.502,151.329 162.169,181.329 162.5,211.5C 161.778,211.918 161.278,212.584 161,213.5C 160.667,211.167 160.333,208.833 160,206.5C 154.506,210.995 149.339,215.828 144.5,221C 136.499,222.9 128.499,224.733 120.5,226.5C 120.5,223.5 120.5,220.5 120.5,217.5C 120.833,217.5 121.167,217.5 121.5,217.5C 121.5,218.833 121.5,220.167 121.5,221.5C 121.5,222.167 121.5,222.833 121.5,223.5C 122.097,224.139 122.93,224.472 124,224.5C 128.89,223.304 133.724,221.97 138.5,220.5C 142.852,216.981 146.686,212.981 150,208.5C 153.333,203.833 156.667,199.167 160,194.5C 160.333,194.833 160.667,195.167 161,195.5C 161.667,173.167 161.667,150.833 161,128.5C 160.667,133.833 160.333,139.167 160,144.5C 149.342,142.751 139.008,139.751 129,135.5C 128.667,135.833 128.333,136.167 128,136.5C 124.989,135.985 123.156,134.318 122.5,131.5C 122.171,125.794 122.505,120.128 123.5,114.5C 129.668,114.852 135.668,115.852 141.5,117.5C 141.554,116.47 141.888,115.303 142.5,114C 141.833,113.667 141.167,113.333 140.5,113C 146.185,111.759 151.851,110.426 157.5,109C 153.876,106.59 149.876,105.09 145.5,104.5C 142.022,99.188 137.688,94.688 132.5,91C 129.397,89.2545 126.231,88.7545 123,89.5C 122.333,83.8333 122.333,78.1667 123,72.5C 123.561,73.0219 124.228,73.3552 125,73.5C 130.841,71.8308 136.008,68.9974 140.5,65C 147.129,64.0531 153.629,62.5531 160,60.5C 160.902,60.7432 161.735,61.0766 162.5,61.5 Z"/></g>
<g><path style="opacity:1" fill="#bfc0c0" d="M 164.5,99.5 C 165.267,100.172 165.934,101.005 166.5,102C 182.457,106.127 198.79,107.96 215.5,107.5C 207.58,109.46 199.58,111.626 191.5,114C 184.173,117.58 176.673,120.747 169,123.5C 167.436,123.011 165.936,122.678 164.5,122.5C 164.423,118.785 164.756,115.119 165.5,111.5C 173.062,111.74 180.395,110.573 187.5,108C 179.841,107.5 172.174,107.334 164.5,107.5C 164.5,104.833 164.5,102.167 164.5,99.5 Z"/></g>
<g><path style="opacity:0.973" fill="#f2f2f2" d="M 118.5,131.5 C 118.647,136.214 118.314,140.881 117.5,145.5C 114.009,145.091 110.675,144.091 107.5,142.5C 106.558,142.608 105.725,142.941 105,143.5C 100.613,141.732 96.1134,140.065 91.5,138.5C 88.1938,139.264 85.1938,138.431 82.5,136C 76.4154,135.735 70.4154,134.902 64.5,133.5C 60.7227,134.759 57.556,133.759 55,130.5C 53.1124,160.485 53.1124,190.485 55,220.5C 56.0437,221.623 56.7104,222.956 57,224.5C 60.3989,223.107 63.8989,221.94 67.5,221C 71.9848,217.895 75.9848,214.228 79.5,210C 87.4062,205.214 95.7395,201.214 104.5,198C 108.802,196.465 113.135,196.298 117.5,197.5C 118.374,199.747 118.708,202.08 118.5,204.5C 118.9,207.761 117.733,208.428 115,206.5C 101.995,208.92 90.4948,214.42 80.5,223C 73.4409,225.812 66.1075,227.479 58.5,228C 59.7383,228.69 59.7383,229.19 58.5,229.5C 56.9382,229.267 55.6049,228.6 54.5,227.5C 54.5,226.833 54.1667,226.5 53.5,226.5C 53.5,225.833 53.1667,225.5 52.5,225.5C 51.5195,189.864 51.1862,154.197 51.5,118.5C 52.9498,119.658 53.9498,119.158 54.5,117C 59.4749,116.668 64.3083,116.501 69,116.5C 85.0627,119.974 100.896,124.307 116.5,129.5C 118.214,128.391 118.881,129.058 118.5,131.5 Z"/></g>
<g><path style="opacity:1" fill="#fcfcfc" d="M 118.5,131.5 C 119.833,155.833 119.833,180.167 118.5,204.5C 118.708,202.08 118.374,199.747 117.5,197.5C 113.135,196.298 108.802,196.465 104.5,198C 95.7395,201.214 87.4062,205.214 79.5,210C 75.9848,214.228 71.9848,217.895 67.5,221C 63.8989,221.94 60.3989,223.107 57,224.5C 56.7104,222.956 56.0437,221.623 55,220.5C 53.1124,190.485 53.1124,160.485 55,130.5C 57.556,133.759 60.7227,134.759 64.5,133.5C 70.4154,134.902 76.4154,135.735 82.5,136C 85.1938,138.431 88.1938,139.264 91.5,138.5C 96.1134,140.065 100.613,141.732 105,143.5C 105.725,142.941 106.558,142.608 107.5,142.5C 110.675,144.091 114.009,145.091 117.5,145.5C 118.314,140.881 118.647,136.214 118.5,131.5 Z"/></g>
<g><path style="opacity:1" fill="#e9070a" d="M 121.5,221.5 C 121.5,220.167 121.5,218.833 121.5,217.5C 121.5,215.833 121.5,214.167 121.5,212.5C 125.49,209.667 128.657,206.001 131,201.5C 137.187,184.937 134.353,170.27 122.5,157.5C 122.338,155.473 122.505,153.473 123,151.5C 126.622,155.492 130.289,159.492 134,163.5C 136.881,168.874 138.381,174.374 138.5,180C 144.385,198.415 138.718,212.248 121.5,221.5 Z"/></g>
<g><path style="opacity:1" fill="#d30f14" d="M 121.5,223.5 C 127.551,221.63 132.718,218.296 137,213.5C 147.228,200.178 151.728,185.178 150.5,168.5C 148.317,165.01 146.65,161.343 145.5,157.5C 139.991,153.382 134.324,149.216 128.5,145C 125.809,145.054 123.976,143.887 123,141.5C 122.205,145.312 121.371,148.979 120.5,152.5C 120.5,146.167 120.5,139.833 120.5,133.5C 121.167,133.5 121.5,133.167 121.5,132.5C 122.167,132.5 122.5,132.167 122.5,131.5C 123.156,134.318 124.989,135.985 128,136.5C 128.333,136.167 128.667,135.833 129,135.5C 139.008,139.751 149.342,142.751 160,144.5C 160.333,139.167 160.667,133.833 161,128.5C 161.667,150.833 161.667,173.167 161,195.5C 160.667,195.167 160.333,194.833 160,194.5C 156.667,199.167 153.333,203.833 150,208.5C 146.686,212.981 142.852,216.981 138.5,220.5C 133.724,221.97 128.89,223.304 124,224.5C 122.93,224.472 122.097,224.139 121.5,223.5 Z"/></g>
<g><path style="opacity:1" fill="#df0c10" d="M 121.5,223.5 C 121.5,222.833 121.5,222.167 121.5,221.5C 138.718,212.248 144.385,198.415 138.5,180C 138.381,174.374 136.881,168.874 134,163.5C 130.289,159.492 126.622,155.492 123,151.5C 122.505,153.473 122.338,155.473 122.5,157.5C 121.503,175.659 121.17,193.992 121.5,212.5C 121.5,214.167 121.5,215.833 121.5,217.5C 121.167,217.5 120.833,217.5 120.5,217.5C 120.5,214.167 120.5,210.833 120.5,207.5C 120.5,189.167 120.5,170.833 120.5,152.5C 121.371,148.979 122.205,145.312 123,141.5C 123.976,143.887 125.809,145.054 128.5,145C 134.324,149.216 139.991,153.382 145.5,157.5C 146.65,161.343 148.317,165.01 150.5,168.5C 151.728,185.178 147.228,200.178 137,213.5C 132.718,218.296 127.551,221.63 121.5,223.5 Z"/></g>
<g><path style="opacity:1" fill="#f30305" d="M 122.5,157.5 C 134.353,170.27 137.187,184.937 131,201.5C 128.657,206.001 125.49,209.667 121.5,212.5C 121.17,193.992 121.503,175.659 122.5,157.5 Z"/></g>
<g><path style="opacity:1" fill="#dadbdb" d="M 51.5,108.5 C 74.5261,110.009 97.5261,111.676 120.5,113.5C 120.5,120.167 120.5,126.833 120.5,133.5C 120.5,139.833 120.5,146.167 120.5,152.5C 120.5,170.833 120.5,189.167 120.5,207.5C 119.672,213.319 119.172,219.319 119,225.5C 117.769,224.892 116.436,224.559 115,224.5C 106.563,225.934 98.0626,226.767 89.5,227C 85.3972,228.004 81.3972,229.171 77.5,230.5C 70.9779,230.823 64.6446,230.49 58.5,229.5C 59.7383,229.19 59.7383,228.69 58.5,228C 66.1075,227.479 73.4409,225.812 80.5,223C 90.4948,214.42 101.995,208.92 115,206.5C 117.733,208.428 118.9,207.761 118.5,204.5C 119.833,180.167 119.833,155.833 118.5,131.5C 118.881,129.058 118.214,128.391 116.5,129.5C 100.896,124.307 85.0627,119.974 69,116.5C 64.3083,116.501 59.4749,116.668 54.5,117C 53.9498,119.158 52.9498,119.658 51.5,118.5C 51.5,115.167 51.5,111.833 51.5,108.5 Z"/></g>
<g><path style="opacity:1" fill="#bd090c" d="M 162.5,211.5 C 162.797,215.767 162.464,219.934 161.5,224C 147.609,225.924 133.942,228.09 120.5,230.5C 120.5,230.167 120.5,229.833 120.5,229.5C 120.5,228.5 120.5,227.5 120.5,226.5C 128.499,224.733 136.499,222.9 144.5,221C 149.339,215.828 154.506,210.995 160,206.5C 160.333,208.833 160.667,211.167 161,213.5C 161.278,212.584 161.778,211.918 162.5,211.5 Z"/></g>
<g><path style="opacity:0.999" fill="#eceded" d="M 232.5,162.5 C 232.811,183.546 232.477,204.546 231.5,225.5C 230.833,225.5 230.5,225.833 230.5,226.5C 215.496,226.667 200.496,226.5 185.5,226C 179.74,225.691 174.073,224.858 168.5,223.5C 167.914,223.709 167.414,224.043 167,224.5C 165.981,222.498 165.148,220.498 164.5,218.5C 164.5,190.167 164.5,161.833 164.5,133.5C 165.682,131.9 167.015,131.567 168.5,132.5C 171.373,131.225 174.373,130.392 177.5,130C 186.769,124.694 196.103,119.361 205.5,114C 210.396,112.287 215.396,110.954 220.5,110C 226.704,108.533 229.538,111.033 229,117.5C 229.672,132.694 230.839,147.694 232.5,162.5 Z"/></g>
<g><path style="opacity:1" fill="#fcfcfc" d="M 165.5,199.5 C 165.5,183.167 165.5,166.833 165.5,150.5C 166.967,147.742 167.633,148.075 167.5,151.5C 175.966,149.536 184.299,148.036 192.5,147C 196.662,143.586 201.328,141.253 206.5,140C 209.324,136.176 212.991,133.509 217.5,132C 218.787,130.59 219.954,129.09 221,127.5C 224.033,131.944 225.7,136.944 226,142.5C 228.098,163.193 228.598,183.526 227.5,203.5C 227.875,205.459 228.541,207.293 229.5,209C 227.75,210.754 227.083,212.921 227.5,215.5C 217.161,215.666 206.828,215.5 196.5,215C 194.699,214.683 194.366,214.016 195.5,213C 194.809,211.933 194.309,210.766 194,209.5C 187.594,211.15 182.76,208.984 179.5,203C 175.34,202.833 171.507,201.666 168,199.5C 167.667,200.5 167.333,201.5 167,202.5C 166.768,201.263 166.268,200.263 165.5,199.5 Z"/></g>
<g><path style="opacity:1" fill="#f7f7f7" d="M 165.5,199.5 C 166.268,200.263 166.768,201.263 167,202.5C 167.333,201.5 167.667,200.5 168,199.5C 171.507,201.666 175.34,202.833 179.5,203C 182.76,208.984 187.594,211.15 194,209.5C 194.309,210.766 194.809,211.933 195.5,213C 194.366,214.016 194.699,214.683 196.5,215C 206.828,215.5 217.161,215.666 227.5,215.5C 227.083,212.921 227.75,210.754 229.5,209C 228.541,207.293 227.875,205.459 227.5,203.5C 228.598,183.526 228.098,163.193 226,142.5C 225.7,136.944 224.033,131.944 221,127.5C 219.954,129.09 218.787,130.59 217.5,132C 212.991,133.509 209.324,136.176 206.5,140C 201.328,141.253 196.662,143.586 192.5,147C 184.299,148.036 175.966,149.536 167.5,151.5C 167.633,148.075 166.967,147.742 165.5,150.5C 165.5,148.167 165.5,145.833 165.5,143.5C 166.822,143.33 167.989,143.663 169,144.5C 175.994,143.301 182.827,141.467 189.5,139C 193.387,135.889 197.72,133.556 202.5,132C 208.243,125.585 215.076,120.752 223,117.5C 225.988,123.524 227.155,129.69 226.5,136C 227.95,143.717 228.783,151.55 229,159.5C 229.329,176.506 229.829,193.506 230.5,210.5C 230.564,214.919 230.064,219.252 229,223.5C 213.594,222.76 198.427,221.927 183.5,221C 178.497,220.302 174.164,218.302 170.5,215C 169.216,214.316 168.049,214.483 167,215.5C 165.603,210.292 165.103,204.959 165.5,199.5 Z"/></g>
<g><path style="opacity:1" fill="#94090a" d="M 163.5,121.5 C 163.5,157.167 163.5,192.833 163.5,228.5C 163.5,229.5 163.5,230.5 163.5,231.5C 148.99,231.829 134.657,231.496 120.5,230.5C 133.942,228.09 147.609,225.924 161.5,224C 162.464,219.934 162.797,215.767 162.5,211.5C 162.169,181.329 162.502,151.329 163.5,121.5 Z"/></g>
<g><path style="opacity:0.405" fill="#5d5d5d" d="M 52.5,225.5 C 53.1667,225.5 53.5,225.833 53.5,226.5C 54.1667,226.5 54.5,226.833 54.5,227.5C 55.6049,228.6 56.9382,229.267 58.5,229.5C 64.6446,230.49 70.9779,230.823 77.5,230.5C 91.8325,230.136 106.166,229.803 120.5,229.5C 120.5,229.833 120.5,230.167 120.5,230.5C 134.657,231.496 148.99,231.829 163.5,231.5C 163.5,230.5 163.5,229.5 163.5,228.5C 163.833,228.5 164.167,228.5 164.5,228.5C 174.311,229.832 184.477,230.499 195,230.5C 205.167,230.333 215.333,230.167 225.5,230C 226.527,229.487 227.527,228.987 228.5,228.5C 228.833,229.833 229.167,229.833 229.5,228.5C 230.167,228.5 230.5,228.167 230.5,227.5C 231.338,227.158 231.672,226.492 231.5,225.5C 242.158,225.4 252.491,226.066 262.5,227.5C 265.184,228.103 267.518,229.436 269.5,231.5C 266.312,233.446 262.979,234.779 259.5,235.5C 252.556,235.972 245.389,236.639 238,237.5C 237.586,237.043 237.086,236.709 236.5,236.5C 198.719,237.986 161.052,238.986 123.5,239.5C 123.167,239.5 122.833,239.5 122.5,239.5C 94.6155,238.867 66.6155,237.867 38.5,236.5C 37.914,236.709 37.414,237.043 37,237.5C 27.8271,236.692 18.9937,235.692 10.5,234.5C 8.68047,233.937 7.34714,232.771 6.5,231C 7.92098,229.377 9.58765,228.21 11.5,227.5C 22.6565,226.371 33.8231,225.371 45,224.5C 47.3998,224.308 49.8998,224.641 52.5,225.5 Z"/></g>
<g><path style="opacity:0.004" fill="#070707" d="M 275.5,229.5 C 275.5,230.5 275.5,231.5 275.5,232.5C 270.455,234.775 265.121,235.775 259.5,235.5C 262.979,234.779 266.312,233.446 269.5,231.5C 267.518,229.436 265.184,228.103 262.5,227.5C 266.816,227.088 271.15,227.755 275.5,229.5 Z"/></g>
<g><path style="opacity:0.004" fill="#040404" d="M 11.5,227.5 C 9.58765,228.21 7.92098,229.377 6.5,231C 7.34714,232.771 8.68047,233.937 10.5,234.5C 9.88258,234.611 9.38258,234.944 9,235.5C 5.77839,234.689 2.61172,233.689 -0.5,232.5C -0.5,231.833 -0.5,231.167 -0.5,230.5C 3.09495,228.03 7.09495,227.03 11.5,227.5 Z"/></g>
<g><path style="opacity:1" fill="#d9dada" d="M 164.5,218.5 C 165.148,220.498 165.981,222.498 167,224.5C 167.414,224.043 167.914,223.709 168.5,223.5C 174.073,224.858 179.74,225.691 185.5,226C 200.496,226.5 215.496,226.667 230.5,226.5C 230.5,226.833 230.5,227.167 230.5,227.5C 229.833,227.5 229.5,227.833 229.5,228.5C 229.167,228.5 228.833,228.5 228.5,228.5C 227.527,228.987 226.527,229.487 225.5,230C 215.333,230.167 205.167,230.333 195,230.5C 184.477,230.499 174.311,229.832 164.5,228.5C 164.5,225.167 164.5,221.833 164.5,218.5 Z"/></g>
<g><path style="opacity:1" fill="#b5b6b6" d="M 120.5,207.5 C 120.5,210.833 120.5,214.167 120.5,217.5C 120.5,220.5 120.5,223.5 120.5,226.5C 120.5,227.5 120.5,228.5 120.5,229.5C 106.166,229.803 91.8325,230.136 77.5,230.5C 81.3972,229.171 85.3972,228.004 89.5,227C 98.0626,226.767 106.563,225.934 115,224.5C 116.436,224.559 117.769,224.892 119,225.5C 119.172,219.319 119.672,213.319 120.5,207.5 Z"/></g>
</svg>
