<?xml version="1.0" encoding="UTF-8"?>
<!DOCTYPE svg PUBLIC "-//W3C//DTD SVG 1.1//EN" "http://www.w3.org/Graphics/SVG/1.1/DTD/svg11.dtd">
<svg xmlns="http://www.w3.org/2000/svg" version="1.1" width="12px" height="21px" style="shape-rendering:geometricPrecision; text-rendering:geometricPrecision; image-rendering:optimizeQuality; fill-rule:evenodd; clip-rule:evenodd" xmlns:xlink="http://www.w3.org/1999/xlink">
<g><path style="opacity:0.599" fill="#66cc65" d="M 8.5,-0.5 C 9.16667,-0.5 9.83333,-0.5 10.5,-0.5C 10.5,0.166667 10.8333,0.5 11.5,0.5C 11.5,1.16667 11.5,1.83333 11.5,2.5C 8.8784,4.78189 6.21173,7.11522 3.5,9.5C 5.8544,12.5211 8.52107,15.1877 11.5,17.5C 11.5,18.1667 11.5,18.8333 11.5,19.5C 10.8333,19.5 10.5,19.8333 10.5,20.5C 10.1667,20.5 9.83333,20.5 9.5,20.5C 6.5,16.8333 3.16667,13.5 -0.5,10.5C -0.5,9.5 -0.5,8.5 -0.5,7.5C 2.77747,5.22703 5.77747,2.56036 8.5,-0.5 Z"/></g>
</svg>
